# xmcd CD database file
#
# Track frame offsets:
#	150
#	47317
#	75456
#	110822
#	137785
#	163468
#	184723
#	206930
#	234278
#
# Disc length: 3480 seconds
#
# Revision: 0
# Processed by: cddbd v1.5.1PL2 Copyright (c) Steve Scherf et al.
# Submitted via: CDex 1.50Beta7
#
DISCID=790d9609
DTITLE=Enigma - L.S.D. - The Remix Collection [DTS]
DYEAR=2001
DGENRE=New Age
TTITLE0=Turn Around [Northern Lights Club Mix]
TTITLE1=Age Of Loneliness [Enigmatic Club Mix]
TTITLE2=Push The Limits [ATB Remix]
TTITLE3=Gravity Of Love [Judgement Day Club Mix]
TTITLE4=Return Of Innocence [380 Midnight Mix]
TTITLE5=Sadeness -Part 1- [Violent U.S. Remix]
TTITLE6=Principles Of Lust [Everlasting Lust Mix]
TTITLE7=Mea Culpa [Fading Shades Mix]
TTITLE8=TNT For The Brain [Midnight Man Mix]
EXTD=YEAR: 2001
EXTT0=
EXTT1=
EXTT2=
EXTT3=
EXTT4=
EXTT5=
EXTT6=
EXTT7=
EXTT8=
PLAYORDER=
